PathFileType	4	(X/Y/Z)	C:\Users\WrightLab\Desktop\Jo\P4V18.trc
DataRate	CameraRate	NumFrames	NumMarkers	Units	OrigDataRate	OrigDataStartFrame	OrigNumFrames
100.00	100.00	       13	19	mm	100.00	189	       502
Frame#	Time	Headset_Front			Headset_Back			Headset_Left			Headset_Right			Left_Shoulder			Right_Shoulder			Sternum			C7			Left Elbow			Right Elbow			Left Wrist			Right Wrist			Left ASIS			Right ASIS			S2			Left Knee			Right Knee			Left Ankle			Right Ankle			
		X1	Y1	Z1	X2	Y2	Z2	X3	Y3	Z3	X4	Y4	Z4	X5	Y5	Z5	X6	Y6	Z6	X7	Y7	Z7	X8	Y8	Z8	X9	Y9	Z9	X10	Y10	Z10	X11	Y11	Z11	X12	Y12	Z12	X13	Y13	Z13	X14	Y14	Z14	X15	Y15	Z15	X16	Y16	Z16	X17	Y17	Z17	X18	Y18	Z18	X19	Y19	Z19	

189	1.880							-137.34964	1706.19202	692.74249				-106.65268	1533.39685	825.48785	164.01830	1559.40491	694.10083	-23.61775	1480.22058	668.16583	47.54208	1589.15308	800.51929	-187.19028	1171.87842	918.93988	361.96591	1341.57996	488.66275	-236.15962	885.01678	804.00061	267.82492	1333.03418	205.62140	-111.85252	1048.71326	767.69574	167.57579	1056.17444	579.41284	106.89473	1070.81470	842.86542	-214.72319	610.11432	658.72552	220.45435	569.03571	639.23639	29.33496	176.67572	813.38611	282.99078	83.04245	792.62305	
190	1.890							-143.48563	1704.83716	683.71069				-111.24815	1532.10242	817.34845	158.13799	1558.22949	684.59698	-29.37580	1478.77856	659.93701	42.29908	1588.28625	791.62616	-191.06693	1171.73010	913.88977	355.50677	1343.62134	476.51993	-241.21446	883.70612	800.15393	260.31927	1338.55713	193.62682	-116.29507	1048.31714	760.40881	161.39415	1054.89746	570.54059	102.35277	1070.34583	835.34521	-222.61270	611.26477	651.87006	217.91209	568.12177	636.34827	9.33402	163.94391	788.83936	282.69769	83.40604	792.60999	
191	1.900							-149.63242	1703.44983	674.82892				-116.71892	1531.02771	809.92603	151.82814	1557.53198	675.05273	-35.21345	1477.18652	651.69391	37.04696	1587.29224	782.83289	-195.34052	1170.76855	908.63806	349.33936	1345.98999	463.86978	-246.04475	881.60938	797.06030	253.73540	1343.72009	181.69940	-121.07246	1047.06775	752.89124	155.76108	1052.95996	562.29169	98.85303	1069.01001	825.92755	-228.53839	611.04376	644.67175	216.12614	567.80878	632.87756	-12.42716	151.74097	764.58533	282.38812	83.52757	792.68561	
192	1.910							-155.45235	1701.72302	665.82843				-121.72935	1529.65234	802.20337	145.83229	1556.06067	665.91345	-41.55517	1475.69299	643.70959	31.61553	1585.98328	774.15930	-199.98962	1169.91040	903.77484	342.48026	1347.94604	452.09097	-252.22530	880.16583	793.69897	246.28734	1348.77820	169.59236	-125.72837	1045.90161	745.32880	149.10663	1051.19653	552.78064	93.91652	1068.44678	818.43683	-236.17700	611.46173	637.97345	213.40988	567.56464	629.68488	-36.27443	139.20227	741.07263	281.93927	83.52426	792.15918	
193	1.920							-161.00505	1699.75195	656.89307				-126.88689	1528.11206	794.11060	139.26202	1554.60681	656.87524	-47.65077	1474.08948	635.46094	25.99252	1584.51697	765.50256	-204.24135	1168.98792	897.74164	336.10934	1350.36230	440.46780	-258.62546	878.94031	790.63593	238.98180	1353.20825	158.18091	-130.79518	1044.18433	737.83295	142.70544	1049.17480	543.48206	87.91801	1066.87524	809.79218	-242.17834	610.61401	631.83984	210.54947	566.74005	627.27899	-59.33322	127.27367	716.56305	281.73868	84.15762	791.95972	
194	1.930							-167.26244	1698.16711	648.10706				-132.63020	1526.62073	786.54022	133.00652	1553.22058	647.83801	-54.42392	1472.37219	627.77643	20.30485	1582.90393	756.89526	-209.71829	1167.99414	892.54102	329.17032	1352.24902	428.57928	-265.16547	877.19550	786.75244	231.78682	1357.25452	147.09660	-136.38084	1042.67480	730.73389	136.56857	1047.13147	534.92419	83.29861	1066.32605	801.13696	-247.21117	609.15283	625.82483	208.04671	565.65302	623.28320	-84.83566	115.83077	694.32587	281.10669	84.76026	791.88348	
195	1.940							-173.55582	1696.51611	639.36859				-138.62915	1524.97205	779.07092	126.35258	1551.85693	638.77765	-60.68662	1470.54285	619.49213	14.42196	1581.38843	748.20074	-214.71284	1166.53601	886.12537	322.54279	1353.82947	417.18350	-271.69217	875.16382	782.74091	224.81717	1361.50110	135.45824	-142.18677	1041.24780	723.66333	129.64441	1044.77649	525.98230	79.04176	1064.88672	792.09393	-252.00020	606.58813	619.99847	205.06712	565.12476	620.07684	-110.18385	104.54172	670.24365	280.68719	85.08699	791.59338	
196	1.950	-99.67532	1596.50952	461.73083				-179.76079	1694.00281	630.83325				-144.40086	1523.04956	771.50616	119.78239	1549.76196	630.12543	-67.51298	1468.51587	611.43964	8.62292	1579.30579	739.67200	-220.13107	1164.79553	879.85736	315.15625	1355.16833	406.35617	-278.25897	873.40942	778.59058	217.74428	1364.92102	124.26324	-148.04518	1039.54163	716.25513	123.33064	1042.62805	517.65704	72.89098	1063.86829	783.72760	-256.15598	603.54022	614.47961	201.43962	564.21844	616.75201	-137.07619	93.36183	649.27972	280.37552	85.68562	791.43408	
197	1.960	-105.94614	1594.40479	453.26071				-186.74646	1692.09790	622.38910				-149.78261	1520.62732	763.20422	112.54814	1547.93567	621.53961	-74.21345	1466.60327	603.28973	2.23149	1577.38110	731.26990	-225.97252	1163.55969	873.72968	308.34009	1356.89563	395.22656	-285.07477	871.03833	775.61487	210.29286	1368.16809	113.23417	-153.98726	1037.12146	708.35681	115.97157	1039.67737	509.47910	67.22952	1062.78833	775.86859	-259.32611	599.65314	608.98822	198.31055	563.14532	613.58069	-164.58937	85.03106	627.70099	280.01889	86.29022	791.69067	
198	1.970	-112.44742	1592.29761	444.92642				-193.48912	1690.19385	613.97668				-156.11053	1519.34717	755.25928	105.59626	1545.85718	612.97223	-81.25173	1464.29822	595.16968	-4.07107	1575.28528	722.84772	-231.58031	1162.15918	867.47467	301.05240	1357.87109	384.37292	-292.17459	869.13568	771.22821	203.16757	1371.29211	102.29173	-160.49350	1035.26855	700.92120	109.11662	1037.37305	500.79370	61.44327	1061.01770	765.92303	-262.60519	595.67731	603.65161	194.41063	562.83466	609.72791	-193.59102	78.35276	605.97906	279.17041	87.85605	791.24707	
199	1.980	-119.19270	1590.16699	436.48285				-199.71141	1688.03064	605.39709				-163.22156	1516.88245	748.14673	98.48373	1543.97412	603.60168	-88.77330	1462.52222	587.68799	-10.03201	1573.19348	714.11774	-238.69817	1160.85876	861.15387	293.63513	1359.04199	373.43698	-299.49945	867.19055	766.35199	195.68744	1373.97168	91.65446	-167.36668	1033.04150	693.17706	101.95378	1034.79980	492.26239	55.17590	1059.30725	757.66223	-264.61948	589.92407	598.65540	189.94775	560.97491	606.35498	-220.31154	71.95507	585.13928	278.00211	88.51222	790.88403	
200	1.990	-126.08917	1587.92383	428.28162				-206.69492	1685.69849	597.09979				-169.22598	1514.99719	739.81207	90.93645	1542.02466	595.13025	-95.80399	1460.19568	579.52686	-17.92118	1571.17700	706.03363	-244.96494	1158.83118	854.32758	286.37900	1359.98645	363.82516	-307.55508	865.84094	760.69415	188.81091	1376.59619	81.33513	-174.52426	1030.68958	684.90692	94.86000	1032.35730	484.05219	48.20023	1058.01746	748.87561	-267.85767	585.39197	593.61572	186.57706	560.90057	602.75928	-246.02316	67.56563	565.44073	277.77792	89.49603	790.60913	
201	2.000	-133.18645	1585.62744	419.99756				-213.36327	1683.08044	588.72186				-175.57993	1512.87048	731.77228	83.77946	1539.53479	586.54095	-103.05867	1457.72754	571.13025	-24.72483	1568.92456	697.78186	-251.84145	1157.17725	847.96851	278.87817	1360.40393	353.54709	-315.33633	864.05341	755.36133	181.64235	1379.02551	70.89030	-182.05063	1028.08606	676.56909	87.66839	1029.79736	475.42395	40.96861	1055.76355	740.02563	-270.14532	580.05975	588.75269	181.48349	560.50513	597.80164	-271.70432	64.95174	547.15918	276.49152	91.68559	790.05090	
